<svg xmlns="http://www.w3.org/2000/svg" width="1298" height="1298" fill="none">
    <path fill="#000" d="M1255.8 863.48c-18.04 45.166-39.99 87.496-70.2 125.8-17.07 19.94-59.1 72.72-86.6 67.22-8-3.5-30.64-42.23-53.5-67.22-40.09-43.815-58.301-61.8-110.101-104.9-24.2-20.1-48.5-39-73-56.7-51.5-37.3-104.5-70.6-162-104.4-6.013-3.519-27.521-19.567-35-15.8-6.959 7.137-9.172 31.289-10.8 40.9-10.612 62.522-19.847 125.253-24.9 188.5-2.7 34.4-4.1 70.8-4.1 109.2 0 63.21 2.554 103.03 13.401 167.92 2.917 17.45 12.156 36 8.5 44.5-15.343 17.54-54.857 26.61-81.101 27.48-48.307 1.61-108.275-10.06-154.04-24.43-32.834-10.31-104.62-39.12-106.059-69.87 2.155-14.23 11.602-52.62 20.1-74.4 18.372-47.39 39.357-93.87 65.9-137.3-23.957 19.464-48.626 37.64-74.6 54.3-18.254 11.81-37.707 25.61-59.745 28.67-24.5 3.39-61.154-33.87-87.155-68.47-36.845-49.032-60.682-88.351-88.845-150.532C52.367 778.618 26 701.978 22 628.48c.4-14 6-25.5 16.6-34.5 13.766-11.701 46.356-22.032 77.355-29.032s83.179-14.634 137-19.5c44.369-4.012 56.817-4.608 113.945-5.468 36.96-.56 112.556 5.968 112.556 5.968S381 503.18 335.3 477.08c-31.5-18-61.2-38.6-89.1-61.9s-53.1-50.6-71.6-81.8c-13.89-23.394-24.619-50.103-27.1-77.4C167 194.448 217.467 87.832 260.955 26.948 312.5 5.978 379.059 9.968 431.3 21.28c45.155 12.168 95.719 30.4 132.399 62.2 31.168 27.127 55.233 60.226 69.2 99.4 5.162 14.691 7.601 32.598 8.601 44.098.565 6.5-6.207 17.213-11.101 8.002-19.6-37.9-49.1-72.3-87.7-91.1-28.997-14.066-59.235-23.419-91.199-28.1-51.894-7.54-102.398-2.758-149.045 21.668 0 0 17.126 49.208 20.445 57 13.1 30.6 34.9 76.232 53.8 108.432 33.4 57.3 73.6 111 120.3 158.5 12.153 12.364 94.456 83.3 101.699 83.3 9.384-4.087 19.191-9.635 29.257-11.732C637 509.5 652.13 475.484 670.699 448.68c28.422-41.03 61.157-77.906 94.801-114.68 29.2-31.9 61.199-62.62 92.199-90.82 35.362-32.147 74.807-63.991 118.6-83.6 11.3-5 22.8-5.5 34.301-1.3 15.89 5.891 37 30.126 55.36 54.168 37.04 48.53 69.27 107.47 92.34 164.932 23.06 57.461 59.66 165.568 54.66 224.568-.78 9.136-5.75 13.851-11.76 21.132-17.24 20.868-59.61 31.002-88.6 39-19.6 5.4-42.3 9.9-61.9 13.6 20.3 3.4 39.5 7.3 57.8 11.9 30.8 7.6 61.6 17 92.4 28.1 22.9 8.3 47.76 20.868 68.56 33.268 13.54 28.052-3.61 89.544-13.66 114.532"/>
    <mask id="a" width="572" height="349" x="686" y="685" maskUnits="userSpaceOnUse" style="mask-type:alpha">
        <path fill="#fff" d="M1236.64 863.91c-12.49 29.933-26.34 59.228-44.64 86.068-15 21.988-62 85.002-84.5 83.502-37-51.502-64.1-74.852-110-118.002-65.396-61.477-123.96-102.799-181.5-141-49.29-32.724-100.9-63.564-129.956-77.868l12.4-7.9c43.932 11.46 90.83 13.731 136 11.9 53.978-2.625 110.056-7.132 160.9-15.4 11.156 0 51.286 7.758 71.596 11.7q46.95 9 96 24.9c29.49 9.494 66.56 22.668 92.06 39.668 8.5 33-7.76 73.095-18.36 102.432"/>
    </mask>
    <g mask="url(#a)">
        <path fill="#322e2e" d="M686.044 685.21h571.33v348.294h-571.33z"/>
        <path stroke="#948480" stroke-width="29" d="M1181.5 969c-133.23-134.572-254.593-213.72-428-285m491 168.5c-143.93-88.049-242.81-134.309-349.5-170"/>
        <path stroke="#d9c9c4" stroke-width="29" d="M1034.79 839.633c-17.92-13.42-28.26-20.786-47.317-33.59m88.297-48.359c-19.55-9.682-30.62-14.949-50.56-24.11"/>
    </g>
    <mask id="b" width="320" height="554" x="325" y="715" maskUnits="userSpaceOnUse" style="mask-type:alpha">
        <path fill="#fff" d="M644.044 715.71c-8.187 33.379-13.424 67.198-18.4 101.2-7.8 53.5-12.8 99.701-15.1 138.701-5.4 90.799-3.4 180.599 12.1 268.699.89 5.23 7.136 29.04 5.9 29.8-26.044 15.87-60.09 14.69-88.544 14.1-52-2.23-104-15.23-152.356-34.7-12.667-5.47-60.144-23.53-62.5-42.7 1.356-20.33 11.17-50.18 19-70.2 22.56-57.48 49.987-114.88 82.356-167.632 31.281-27.74 61.213-56.898 91.344-85.867 43.714-45.698 84.656-88.133 112.656-148.133z"/>
    </mask>
    <g mask="url(#b)">
        <path fill="#322e2e" d="M325.144 715.71h318.9v552.786h-318.9z"/>
        <path stroke="#948480" stroke-width="29" d="M526.5 1270c-14.244-185.38 3.736-320.251 54-495.5m-180 467c21.615-153.8 50.947-257.022 98-374.5"/>
        <path stroke="#d9c9c4" stroke-width="29" d="M524.25 1075.25c1.414-22.78 2.54-35.63 5.267-58.74m-92.759 36.33c5.375-20.52 8.664-31.88 14.515-52.07"/>
    </g>
    <mask id="c" width="552" height="512" x="645" y="172" maskUnits="userSpaceOnUse" style="mask-type:alpha">
        <path fill="#fff" d="M1195.5 600.978c-21 31-74.5 41.597-100 47-74.1 15.7-164.956 29.932-240.556 33.932-51.189 2.771-103.473 2.418-153.3-10.9-.4-.1-.8-.499-.8-.899C698.631 644.823 689 622.478 678 596.978c-9.192-21.31-33-53.5-33-53.5 14.398-45.747 36.471-77.657 68.144-122.168 31.464-44.219 60.371-70.399 92.4-103.8 25.7-25.558 51.72-50.956 79.3-74.5 25.13-21.247 88.156-67.532 110.656-70.032 29.5 3 85.5 94 85.5 94s34.38 57.985 52.64 97.032 34.03 86.078 47.5 130.4c8.78 30.739 17.36 77.568 14.36 106.568"/>
    </mask>
    <g mask="url(#c)">
        <path fill="url(#d)" d="M645 172.978h551.11v510.317H645z"/>
        <path stroke="#948480" stroke-width="38" d="M689 631c201.248-51.074 311.55-85.37 488-154.5m-515 101c107.609-94.084 193.142-155.978 436-282.5"/>
        <path stroke="#d9c9c4" stroke-width="38" d="M962.82 553.961c19.045-6.22 29.602-9.736 48.23-16.059M881.227 415.469c18.832-11.546 29.442-17.855 48.468-28.785"/>
    </g>
    <mask id="e" width="577" height="489" x="39" y="557" maskUnits="userSpaceOnUse" style="mask-type:alpha">
        <path fill="#fff" d="M614.744 710.01c.3.3.4.701.2 1.101C586.5 769.978 538 822.018 494.644 864.81c-46.1 45.5-94.4 87.4-144.8 125.7-25.882 19.7-72.344 51.47-94.844 55.47-40.5-6.5-104.899-112.665-121.756-143.57-26.793-49.407-49.253-99.246-68.3-152.2-9.705-30.428-35.944-106.732-20.6-136.8C66 585.478 157.528 574.953 189 570.978c46.837-5.916 95.644-11.067 145.244-12.367 56.9-1.5 104.3-2.301 154.2 5.799 23.361 3.779 45.139 11.763 66.556 21.568 4.02 17.907 8.997 38.598 19.5 61.5 12.106 26.397 20.051 42.339 40.244 62.532"/>
    </mask>
    <g mask="url(#e)">
        <path fill="#322e2e" d="M39.636 557.644h575.412v488.333H39.636z"/>
        <path stroke="#948480" stroke-width="38" d="M160.522 947.744C431.98 793.873 525.333 732.222 592.5 672M71.745 769.56C323.686 671.488 434.115 639.282 568.5 620.5"/>
        <path stroke="#d9c9c4" stroke-width="38" d="M335.719 846.66c21.586-12.609 33.415-19.913 54.277-32.547m-120.512-118.09c22.976-7.942 35.696-12.193 58.387-19.484"/>
    </g>
    <path fill="url(#f)" d="M570.044 558.41c-53.544-5.932-155.932-55.711-202-80.2-62.896-32.59-125.186-75.156-167.7-132.7C186.476 326.732 162 289 162 255c20-63.5 64.282-146.444 103.5-213.022 10.274 64.395 29.07 129.921 56.444 189.232 29 63.2 65 122.2 107.8 177.2 43.1 55 94.156 104.668 151.756 144.068.72 0-9.883 5.168-11.456 5.932"/>
    <path fill="#862e2d" d="M253.004 63.46c11.134 70.501 53.496 192.518 95.739 251.218 0 .1 0 .2-.1.2h-.1c-25.043-14.9-56.043-13.4-76.9 3.5-18.64 20.692-17.356 45.04-13.643 70.6-43.391-40.139-88.042-101.404-85.473-163.724 13-35.675 50.611-112.293 80.477-161.793"/>
    <path fill="url(#g)" d="M625.5 201.478s-29.372-38.082-54.156-55.468c-20.732-14.544-37.912-21.679-58.2-28.6-15.6-5.4-32.9-9.7-51.9-13-27.003-4.313-53.531-6.558-80.9-4.1-29.027 2.621-55.814 11.368-81.9 24.1-6.444-20-16.944-59.932-20.944-87.932C313.7 24.237 347.234 21.719 385 25.61c38.138 3.93 59.844 9.9 95.044 24.6 23 8.8 43.4 19.5 61.1 32.1 20.3 14.38 38.4 32.743 52.8 53 16.587 23.333 31.556 66.168 31.556 66.168"/>
    <path fill="#000" fill-opacity=".33" fill-rule="evenodd" d="M661.756 696.615c87.152 31.008 369.724 227.322 442.484 349.465 58-4.5 180.48-201.732 158.92-290.495-77.13-49.111-265.744-81.567-265.744-81.567 46.824-7.622 256.434-22.708 197.624-113.608-25.04 74.09-277.54 95.09-379.296 97.2l-2.3-6.3c44.787-5.612 90.698-22.275 118.9-59.3 17.4-22.9 23.1-46.1 25.2-58.6 3.456-47.932-21.634-82.277-63.2-100.7-28.315-12.55-46.3-13.6-78.7-9.8-65.961 7.813-115.75 58.28-154.1 108.5 0 0-6.788-11.214-7.544-12.932-24.5 29.522-86 58.022-123.156 56.5-.9 4.3-1.1 9.532 0 13.432v.2c-55.047 1.468-119.224 12.647-158.2 54.3-21.603 23.128-36.178 53.831-31 85.8 5.5 34.3 31.1 66.9 64.4 77 28.626 8.79 61.171 1.378 87.8-10.1 31.8-13.6 68.5-49 68.5-49l6.6 4.9C517.482 819.016 380 953.5 321 968c-60 4-135.444-161.378-148.256-192.19-26.022-62.581-68.244-145.31-16.2-200.3-32.596 1.539-111.017 19.851-120.373 33.883-39.887 42.162 108.757 410.057 216.783 444.877 28.5 5.5 163.095-102.959 163.095-102.959C389.43 1004.85 315.95 1142.33 315.95 1192.02c24.494 62.63 269.6 118.42 322.987 62.14-42.256-140.26-19.307-463.75 22.819-557.545m-50.612 533.595c0 .1-.1.3-.2.3-92.623 18.52-189.806-8.18-270.5-54 4-16.03 29-85.6 29-85.6s144.794-109.905 221.4-158.6h.1l.2.2c-8.557 99.11 7.937 199.64 20 297.7m622.396-466.8c-4.19 91.067-71.04 190.068-114.54 231.068-74.09-75.417-155.91-142.704-241.956-204.068 77.016-27.901 154.716-54.539 234.956-71.432 25.57 3.409 98 31 121.54 44.432" clip-rule="evenodd"/>
    <mask id="h" width="119" height="157" x="568" y="548" maskUnits="userSpaceOnUse" style="mask-type:alpha">
        <path fill="#fff" d="M629.444 548.21C654.495 572.95 686.5 642.584 686.5 677c-2.893 10.022-38.752 29.905-55 27.5-28.925-9.691-63.5-95.817-63.5-128.022 17.5-11 46.5-24.5 61.444-28.268"/>
    </mask>
    <g mask="url(#h)">
        <path fill="#211f1f" d="M568 548.21h119.482V704.7H568z"/>
        <path fill="#5b4843" d="M568 597.321c29.244-17.173 46.406-24.127 78.408-31.808V548H568z"/>
    </g>
    <defs>
        <linearGradient id="f" x1="558.123" x2="195.031" y1="563.907" y2="153.11" gradientUnits="userSpaceOnUse">
            <stop stop-color="#df5b4e"/>
            <stop offset="1" stop-color="#b7202f"/>
        </linearGradient>
        <linearGradient id="g" x1="647.906" x2="294.09" y1="143.681" y2="66.822" gradientUnits="userSpaceOnUse">
            <stop stop-color="#cea3a8"/>
            <stop offset="1" stop-color="#b57f84"/>
        </linearGradient>
        <radialGradient id="d" cx="0" cy="0" r="1" gradientTransform="translate(1012.9 214.152)scale(329.397)" gradientUnits="userSpaceOnUse">
            <stop stop-color="#b28276"/>
            <stop offset=".971" stop-color="#343130"/>
        </radialGradient>
    </defs>
</svg>
